<?xml version="1.0" encoding="utf-8"?>
<!-- Generator: Adobe Illustrator 16.0.0, SVG Export Plug-In . SVG Version: 6.00 Build 0)  -->
<!DOCTYPE svg PUBLIC "-//W3C//DTD SVG 1.1//EN" "http://www.w3.org/Graphics/SVG/1.1/DTD/svg11.dtd">
<svg version="1.1" id="圖層_1" xmlns="http://www.w3.org/2000/svg" xmlns:xlink="http://www.w3.org/1999/xlink" x="0px" y="0px"
	 width="128px" height="128px" viewBox="0 0 128 128" enable-background="new 0 0 128 128" xml:space="preserve">
<g>
	<path fill-rule="evenodd" clip-rule="evenodd" fill="#D776AF" d="M116.7,71.4c0,12.3-0.2,24.7,0.1,37c0.1,6.4-4.6,9.7-9.8,9.7
		c-24.5-0.1-49-0.1-73.5-0.1c-4.6,0-8-2.6-9-6.5c-0.3-1.2-0.1-1.8,1.3-1.8c1.7,0.1,3.5-0.4,4.3,2c0.4,1.1,1.8,1.4,3,1.3
		c3.2,0,6.3,0,9.5,0c21.4,0,42.8,0,64.2,0c4,0,5-1,5-4.9c0-24.7,0-49.4,0-74.1c0-2.1-0.5-3.7-2.5-4.6c-0.8-0.3-1.2-4.5-0.5-4.8
		c0.7-0.4,1.4-0.1,2.1,0.2c3.5,1.2,5.7,4.4,5.7,8.2c0,8.9,0,17.8,0,26.6C116.7,63.6,116.7,67.5,116.7,71.4z"/>
	<path fill-rule="evenodd" clip-rule="evenodd" fill="#D776AF" d="M60.2,14.4c5,0,10.1,0.1,15.1,0c1.6,0,2.1,0.4,2.1,2
		c-0.1,2.9,0,2.9-2.8,2.9c-9.8,0-19.7,0-29.5,0c-0.7,0-1.8,0.4-2-0.6c-0.2-1.3-0.4-2.7,0.2-3.9c0.3-0.6,1.1-0.3,1.7-0.3
		C50,14.4,55.1,14.4,60.2,14.4z"/>
	<path fill-rule="evenodd" clip-rule="evenodd" fill="#D776AF" d="M86.3,16.8c0,1.6,0.1,3.2,0,4.7c-0.1,2-1.4,3.3-3.3,3.4
		c-1.8,0.1-3.5-1.3-3.5-3.2c-0.1-3.3-0.1-6.7,0-10c0.1-2,1.6-3.2,3.5-3.2c1.9,0.1,3.3,1.3,3.4,3.4C86.4,13.5,86.3,15.1,86.3,16.8z"
		/>
	<path fill-rule="evenodd" clip-rule="evenodd" fill="#D776AF" d="M34,16.7c0-1.6-0.1-3.3,0-4.9c0.1-2,1.4-3.2,3.2-3.3
		c1.9-0.1,3.5,1.1,3.6,3.1c0.1,3.4,0.2,6.8,0,10.2c-0.1,2.1-1.5,3-4,2.8c-1.7-0.1-2.7-1.2-2.8-3.2C34,19.9,34,18.3,34,16.7
		C34,16.7,34,16.7,34,16.7z"/>
	<path fill-rule="evenodd" clip-rule="evenodd" fill="#D776AF" d="M97.9,14.4c-2.3,0-4.6,0-6.9,0c-2.6,0-2.6,0-2.5,2.6
		c0,0.2,0,0.5,0,0.7c-0.1,1.2,0.4,1.6,1.6,1.6c2.4,0,4.9-0.1,7.3,0c2.8,0.1,4.1,1.4,4.2,4.2c0,2.7,0,5.5,0,8.2c0,2.7,0,2.7-2.7,2.7
		c-12.8,0-25.7,0-38.5,0c-3.3,0-6.6,0-9.9,0c-9.9,0-19.7,0-29.6,0c-1.6,0-2.1-0.5-2.1-2.1c0.1-3,0-6,0-8.9c0-2.7,1.3-4,4-4.1
		c2.4-0.1,4.7-0.1,7.1,0c1.4,0,2.1-0.4,1.9-1.8c-0.1-0.5-0.1-1,0-1.5c0.2-1.3-0.4-1.7-1.7-1.7c-2.4,0.1-4.7,0-7.1,0
		c-5.7,0-9.2,3.5-9.2,9.2c0,25,0,50,0,75c0,6,3.4,9.4,9.4,9.4c24.6,0,49.2,0,73.7,0c0.4,0,0.9,0,1.3,0c4.5-0.3,8-3.8,8-8.3
		c0-25.6,0-51.2,0-76.8C106.4,18,102.7,14.5,97.9,14.4z M101.5,97.8c0,4.2-1,5.2-5.3,5.2c-12,0-24.1,0-36.1,0c-12.2,0-24.3,0-36.5,0
		c-3.5,0-4.7-1.2-4.7-4.7c0-18.8,0-37.6,0-56.4c0-2.7,0-2.7,2.6-2.7c25.7,0,51.5,0,77.2,0c2.8,0,2.8,0,2.8,2.9
		C101.5,60.7,101.5,79.3,101.5,97.8z"/>
</g>
<rect x="19.4" y="46.2" fill-rule="evenodd" clip-rule="evenodd" fill="none" width="82.4" height="48.5"/>
<text transform="matrix(1 0 0 1 37.5454 82.9121)" fill="#D776AF" stroke="#D776AF" stroke-miterlimit="10" font-family="'HannotateSC-W5-83pv-RKSJ-H'" font-size="46.2113">日</text>
</svg>
